<svg width="151" height="151" viewBox="0 0 151 151" fill="none" xmlns="http://www.w3.org/2000/svg">
<path d="M145.182 47.9868C149.935 40.9623 150.915 34.0605 149.875 28.0954C148.716 21.449 144.789 15.852 138.699 14.1892C133.39 12.7367 128.449 14.1491 123.666 17.8028C121.119 15.6467 118.427 13.6583 115.604 11.8502C112.609 7.30995 108.755 3.82902 103.747 1.65282C98.7157 -0.540921 93.7798 -0.460785 89.5551 1.39738C84.8846 0.490836 80.0664 0 75.133 0C70.1996 0 65.3814 0.488332 60.7109 1.39989C56.4887 -0.455776 51.5503 -0.538417 46.5193 1.65532C41.5082 3.83153 37.6516 7.31246 34.654 11.8527C31.8342 13.6633 29.1371 15.6492 26.5903 17.8078C21.8097 14.1516 16.8637 12.7392 11.5572 14.1917C5.47182 15.8545 1.54012 21.449 0.380648 28.0979C-0.653614 34.063 0.325555 40.9648 5.07615 47.9893C1.81058 56.4061 0 65.5517 0 75.1255C0 116.621 33.6423 150.256 75.133 150.256C116.619 150.256 150.256 116.621 150.256 75.1255C150.256 65.5517 148.445 56.4061 145.182 47.9868ZM75.133 143.998C37.1558 143.998 6.26067 113.103 6.26067 75.1255C6.26067 67.5576 7.50779 60.2752 9.77415 53.4586C18.9423 61.928 39.2669 74.6296 40.0683 75.1305C40.7394 74.4018 64.1092 49.2239 69.3231 36.8077C74.8901 23.5426 72.8191 13.4028 67.6202 6.81912C67.5826 6.77404 67.5401 6.73898 67.505 6.6939C70.0093 6.41593 72.5536 6.26067 75.133 6.26067C77.7124 6.26067 80.2567 6.41593 82.761 6.6939C82.7259 6.73898 82.6834 6.77404 82.6458 6.81912C77.4469 13.4028 75.3784 23.5426 80.9429 36.8077C86.1568 49.2239 109.522 74.4018 110.198 75.1305C110.999 74.6296 131.321 61.9305 140.484 53.4586C142.751 60.2777 143.995 67.5576 143.995 75.1255C143.995 113.103 113.105 143.998 75.133 143.998Z" fill="#61E786"/>
<path d="M113.14 85.1027C104.463 83.4449 91.6487 81.7419 75.1255 81.7419C58.6074 81.7419 45.788 83.4449 37.1183 85.1027C33.7375 85.7538 32.5555 88.2681 32.5555 90.279C32.5555 108.488 46.6069 126.821 75.128 126.821C103.649 126.821 117.706 108.49 117.706 90.279C117.703 88.2681 116.514 85.7538 113.14 85.1027ZM110.123 94.5888C109.99 95.6932 109.78 97.0305 109.462 98.478C109.103 100.078 108.805 100.822 106.291 100.521C101.48 99.948 48.7731 99.948 43.9624 100.521C41.4506 100.819 41.1501 100.076 40.7945 98.478C40.4765 97.0305 40.2661 95.6957 40.1309 94.5888C39.9055 92.7257 40.1033 91.4084 43.3464 90.8675C48.8432 89.9434 60.4705 88.3282 75.1255 88.3282C89.7805 88.3282 101.408 89.9434 106.905 90.8675C110.15 91.4084 110.346 92.7232 110.123 94.5888Z" fill="#61E786"/>
</svg>
