<svg width="151" height="151" viewBox="0 0 151 151" fill="none" xmlns="http://www.w3.org/2000/svg">
<path d="M75.128 0C33.6373 0 0 33.6373 0 75.128C0 116.619 33.6373 150.256 75.128 150.256C116.619 150.256 150.256 116.619 150.256 75.128C150.256 33.6373 116.619 0 75.128 0ZM75.128 143.995C37.1533 143.995 6.26067 113.103 6.26067 75.128C6.26067 37.1533 37.1533 6.26067 75.128 6.26067C113.1 6.26067 143.995 37.1533 143.995 75.128C143.995 113.103 113.1 143.995 75.128 143.995Z" fill="#61E786"/>
<path d="M75.128 99.7549C63.7637 99.7549 54.8885 107.413 50.4936 116.013C49.3165 118.311 50.8817 120.801 52.6197 119.366C67.0392 107.418 83.1317 107.345 97.6389 119.366C99.3743 120.801 100.94 118.311 99.7625 116.013C95.3675 107.413 86.4949 99.7549 75.128 99.7549Z" fill="#61E786"/>
<path d="M57.0947 71.87C57.1849 71.6797 57.2074 71.4718 57.2024 71.254C59.9646 73.34 62.6242 75.679 65.3713 78.4237C64.863 73.7031 62.554 69.2731 59.4487 65.6144C56.3184 61.9556 52.3066 59.0006 47.9391 56.9972C43.5567 54.9662 38.7485 53.8368 33.9403 53.7942C29.1471 53.7742 24.4216 54.846 20.4498 57.4379C24.2838 57.8086 27.6746 58.337 30.9978 59.1033C30.855 59.2285 30.7323 59.3687 30.6522 59.5415C27.2439 66.8439 30.4018 75.5212 37.6992 78.9295C45.0091 82.3328 53.6864 79.1725 57.0947 71.87Z" fill="#61E786"/>
<path d="M116.316 53.7917C111.507 53.8368 106.699 54.9662 102.317 56.9947C97.9494 59.0006 93.9375 61.9531 90.8072 65.6119C87.7019 69.2706 85.393 73.7006 84.8846 78.4212C87.6318 75.674 90.2913 73.3375 93.0535 71.2515C93.0485 71.4693 93.0711 71.6772 93.1612 71.8675C96.5695 79.17 105.247 82.3303 112.554 78.9245C119.852 75.5162 123.012 66.8389 119.601 59.5365C119.521 59.3662 119.398 59.2235 119.256 59.0983C122.579 58.332 125.972 57.8036 129.804 57.4329C125.834 54.8435 121.109 53.7742 116.316 53.7917Z" fill="#61E786"/>
</svg>
