<svg width="35" height="35" viewBox="0 0 35 35" fill="none" xmlns="http://www.w3.org/2000/svg">
<path d="M6.125 35H28.875C32.2577 35 35 32.2577 35 28.875V6.125C35 2.74226 32.2577 0 28.875 0H6.125C2.74226 0 0 2.74226 0 6.125V28.875C0 32.2577 2.74226 35 6.125 35Z" fill="url(#paint0_radial_17_435)"/>
<path d="M24.0625 30.625H10.9375C9.19702 30.625 7.52782 29.9336 6.29711 28.7029C5.0664 27.4722 4.375 25.803 4.375 24.0625V10.9375C4.375 9.19702 5.0664 7.52782 6.29711 6.29711C7.52782 5.0664 9.19702 4.375 10.9375 4.375H24.0625C25.803 4.375 27.4722 5.0664 28.7029 6.29711C29.9336 7.52782 30.625 9.19702 30.625 10.9375V24.0625C30.625 25.803 29.9336 27.4722 28.7029 28.7029C27.4722 29.9336 25.803 30.625 24.0625 30.625ZM10.9375 7C9.89365 7.00145 8.89298 7.41675 8.15487 8.15487C7.41675 8.89298 7.00145 9.89365 7 10.9375V24.0625C7.00145 25.1063 7.41675 26.107 8.15487 26.8451C8.89298 27.5832 9.89365 27.9986 10.9375 28H24.0625C25.1063 27.9986 26.107 27.5832 26.8451 26.8451C27.5832 26.107 27.9986 25.1063 28 24.0625V10.9375C27.9986 9.89365 27.5832 8.89298 26.8451 8.15487C26.107 7.41675 25.1063 7.00145 24.0625 7H10.9375Z" fill="white"/>
<path d="M17.5 24.9375C16.029 24.9375 14.591 24.5013 13.3679 23.6841C12.1449 22.8668 11.1916 21.7052 10.6286 20.3462C10.0657 18.9872 9.91844 17.4918 10.2054 16.049C10.4924 14.6063 11.2007 13.2811 12.2409 12.2409C13.2811 11.2007 14.6063 10.4924 16.049 10.2054C17.4918 9.91844 18.9872 10.0657 20.3462 10.6286C21.7052 11.1916 22.8668 12.1449 23.6841 13.3679C24.5013 14.591 24.9375 16.029 24.9375 17.5C24.9361 19.4721 24.152 21.363 22.7575 22.7575C21.363 24.152 19.4721 24.9361 17.5 24.9375ZM17.5 12.6875C16.5482 12.6875 15.6177 12.9698 14.8263 13.4986C14.0349 14.0274 13.4181 14.779 13.0538 15.6583C12.6896 16.5377 12.5943 17.5053 12.78 18.4389C12.9657 19.3724 13.424 20.2299 14.0971 20.903C14.7701 21.576 15.6276 22.0343 16.5611 22.22C17.4947 22.4057 18.4623 22.3104 19.3417 21.9462C20.221 21.5819 20.9726 20.9651 21.5015 20.1737C22.0303 19.3823 22.3125 18.4518 22.3125 17.5C22.3111 16.2241 21.8036 15.0009 20.9014 14.0987C19.9992 13.1964 18.7759 12.689 17.5 12.6875Z" fill="white"/>
<path d="M24.9375 11.8125C25.6624 11.8125 26.25 11.2249 26.25 10.5C26.25 9.77513 25.6624 9.1875 24.9375 9.1875C24.2126 9.1875 23.625 9.77513 23.625 10.5C23.625 11.2249 24.2126 11.8125 24.9375 11.8125Z" fill="white"/>
<defs>
<radialGradient id="paint0_radial_17_435" cx="0" cy="0" r="1" gradientUnits="userSpaceOnUse" gradientTransform="translate(-0.7041 34.2891) rotate(180) scale(80.8254)">
<stop stop-color="#F9ED32"/>
<stop offset="0.36" stop-color="#EE2A7B"/>
<stop offset="0.44" stop-color="#D22A8A"/>
<stop offset="0.6" stop-color="#8B2AB2"/>
<stop offset="0.83" stop-color="#1B2AF0"/>
<stop offset="0.88" stop-color="#002AFF"/>
</radialGradient>
</defs>
</svg>
