<svg width="81" height="81" viewBox="0 0 81 81" fill="none" xmlns="http://www.w3.org/2000/svg">
<path d="M40.5 81C32.4899 81 24.6596 78.6247 17.9994 74.1745C11.3392 69.7243 6.14824 63.3991 3.0829 55.9987C0.017548 48.5983 -0.784487 40.4551 0.778214 32.5989C2.34092 24.7426 6.19816 17.5262 11.8622 11.8622C17.5262 6.19816 24.7426 2.34092 32.5989 0.778214C40.4551 -0.784487 48.5983 0.017548 55.9987 3.0829C63.3991 6.14824 69.7243 11.3392 74.1745 17.9994C78.6247 24.6596 81 32.4899 81 40.5C81 51.2413 76.733 61.5426 69.1378 69.1378C61.5426 76.733 51.2413 81 40.5 81ZM40.5 6.23079C33.7222 6.23079 27.0966 8.24064 21.461 12.0062C15.8255 15.7717 11.4331 21.1239 8.83937 27.3857C6.24562 33.6476 5.56697 40.538 6.88926 47.1856C8.21154 53.8332 11.4754 59.9394 16.268 64.732C21.0606 69.5247 27.1668 72.7885 33.8144 74.1108C40.462 75.433 47.3524 74.7544 53.6143 72.1606C59.8762 69.5669 65.2283 65.1745 68.9938 59.539C72.7594 53.9034 74.7692 47.2778 74.7692 40.5C74.7692 31.4112 71.1587 22.6947 64.732 16.268C58.3053 9.84128 49.5888 6.23079 40.5 6.23079Z" fill="#61E786"/>
<path d="M40.5 62.3078C39.6737 62.3078 38.8813 61.9795 38.2971 61.3953C37.7128 60.811 37.3846 60.0186 37.3846 59.1924V21.8078C37.3846 20.9815 37.7128 20.1891 38.2971 19.6049C38.8813 19.0206 39.6737 18.6924 40.5 18.6924C41.3262 18.6924 42.1186 19.0206 42.7029 19.6049C43.2871 20.1891 43.6154 20.9815 43.6154 21.8078V59.1924C43.6154 60.0186 43.2871 60.811 42.7029 61.3953C42.1186 61.9795 41.3262 62.3078 40.5 62.3078Z" fill="#61E786"/>
<path d="M59.1923 43.6153H21.8077C20.9815 43.6153 20.189 43.2871 19.6048 42.7028C19.0205 42.1186 18.6923 41.3262 18.6923 40.4999C18.6923 39.6737 19.0205 38.8812 19.6048 38.297C20.189 37.7127 20.9815 37.3845 21.8077 37.3845H59.1923C60.0186 37.3845 60.811 37.7127 61.3952 38.297C61.9795 38.8812 62.3077 39.6737 62.3077 40.4999C62.3077 41.3262 61.9795 42.1186 61.3952 42.7028C60.811 43.2871 60.0186 43.6153 59.1923 43.6153Z" fill="#61E786"/>
</svg>
