<svg width="35" height="35" viewBox="0 0 35 35" fill="none" xmlns="http://www.w3.org/2000/svg">
<path d="M7.94506 0C7.17506 0.035 6.16006 0.105 5.70506 0.21C5.00506 0.35 4.34006 0.56 3.81506 0.84C3.15006 1.155 2.59006 1.575 2.10006 2.065C1.57506 2.59 1.15506 3.15 0.840061 3.815C0.560061 4.34 0.350061 5.005 0.210061 5.705C0.105061 6.16 0.035061 7.175 0.035061 7.945C6.10352e-05 8.26 6.10352e-05 8.68 6.10352e-05 8.89V26.1101V27.0551C0.035061 27.8251 0.105061 28.8401 0.210061 29.2951C0.350061 29.9951 0.560061 30.6601 0.840061 31.1851C1.15506 31.8501 1.57506 32.4101 2.06506 32.9001C2.59006 33.4251 3.15006 33.8451 3.81506 34.1601C4.34006 34.4401 5.00506 34.6501 5.70506 34.7901C6.16006 34.8951 7.17506 34.9651 7.94506 34.9651C8.26006 35.0001 8.68006 35.0001 8.89006 35.0001H26.1101H27.0551C27.8251 34.9651 28.8401 34.8951 29.2951 34.7901C29.9951 34.6501 30.6601 34.4401 31.1851 34.1601C31.8501 33.8451 32.4101 33.4251 32.9001 32.9351C33.4251 32.4101 33.8451 31.8501 34.1601 31.1851C34.4401 30.6601 34.6501 29.9951 34.7901 29.2951C34.8951 28.8401 34.9651 27.8251 34.9651 27.0551C35.0001 26.7401 35.0001 26.3201 35.0001 26.1101V7.945C34.9651 7.175 34.8951 6.16 34.7901 5.705C34.6501 5.005 34.4401 4.34 34.1601 3.815C33.8451 3.15 33.4251 2.59 32.9351 2.1C32.4101 1.575 31.8501 1.155 31.1851 0.84C30.6601 0.56 29.9951 0.35 29.2951 0.21C28.8401 0.105 27.8251 0.035 27.0551 0.035C26.7401 -4.07454e-09 26.3201 0 26.1101 0H7.94506Z" fill="url(#paint0_linear_17_425)"/>
<path fill-rule="evenodd" clip-rule="evenodd" d="M23.5671 19.8037C23.2554 19.6477 21.7228 18.8938 21.437 18.7898C21.1513 18.6858 20.9435 18.6338 20.7357 18.9458C20.5278 19.2578 19.9304 19.9597 19.7486 20.1677C19.5668 20.3757 19.3849 20.4017 19.0732 20.2457C18.7614 20.0897 17.757 19.7607 16.5663 18.6989C15.6396 17.8726 15.014 16.852 14.8321 16.54C14.6503 16.228 14.8128 16.0594 14.9688 15.904C15.109 15.7645 15.2806 15.5401 15.4364 15.3581C15.5923 15.1761 15.6442 15.0461 15.7481 14.8382C15.852 14.6302 15.8001 14.4482 15.7222 14.2922C15.6442 14.1362 15.0208 12.6023 14.761 11.9783C14.508 11.3707 14.251 11.4529 14.0597 11.4434C13.878 11.4343 13.67 11.4324 13.4622 11.4324C13.2543 11.4324 12.9167 11.5104 12.6309 11.8224C12.3451 12.1343 11.5399 12.8884 11.5399 14.4222C11.5399 15.956 12.6569 17.4379 12.8127 17.646C12.9686 17.854 15.0109 21.0017 18.138 22.3515C18.8818 22.6726 19.4624 22.8643 19.9152 23.008C20.6619 23.2451 21.3416 23.2117 21.8787 23.1315C22.4776 23.042 23.723 22.3775 23.9828 21.6496C24.2425 20.9217 24.2425 20.2977 24.1646 20.1677C24.0867 20.0377 23.8789 19.9597 23.5671 19.8037ZM17.8792 27.5675H17.875C16.0143 27.5667 14.1893 27.0671 12.5972 26.1226L12.2185 25.8979L8.29382 26.9271L9.34142 23.1018L9.09478 22.7097C8.05682 21.0591 7.50864 19.1515 7.50939 17.1928C7.51165 11.4772 12.1635 6.82713 17.8833 6.82713C20.6531 6.82822 23.2566 7.90796 25.2144 9.86734C27.1722 11.8267 28.2498 14.4313 28.2488 17.2011C28.2464 22.9171 23.5947 27.5675 17.8792 27.5675ZM26.7045 8.37841C24.349 6.02097 21.2165 4.72207 17.8791 4.7207C11.0025 4.7207 5.4057 10.3153 5.40297 17.192C5.40208 19.3901 5.9765 21.5359 7.06827 23.4272L5.29831 29.8902L11.9121 28.1559C13.7343 29.1495 15.786 29.6731 17.8741 29.674H17.8792C24.7552 29.674 30.3524 24.0786 30.3552 17.202C30.3565 13.8694 29.0601 10.7358 26.7045 8.37841Z" fill="white"/>
<defs>
<linearGradient id="paint0_linear_17_425" x1="17.5001" y1="35.0001" x2="17.5001" y2="6.67572e-05" gradientUnits="userSpaceOnUse">
<stop stop-color="#25CF43"/>
<stop offset="1" stop-color="#61FD7D"/>
</linearGradient>
</defs>
</svg>
